<svg id="svg1" xmlns="http://www.w3.org/2000/svg" xmlns:xlink="http://www.w3.org/1999/xlink" viewBox="0 0 367.15 439.58"><defs><style>.cls-1{fill:url(#linear-gradient);}.cls-2,.cls-3{stroke:#000;stroke-miterlimit:14.46;stroke-dashoffset:0.77px;stroke-opacity:0;stroke-width:0.58px;stroke-dasharray:0.48 1.44;}.cls-2{fill:url(#linear-gradient-2);}.cls-3{fill:url(#linear-gradient-3);}</style><linearGradient id="linear-gradient" x1="52.86" y1="720.62" x2="60.85" y2="720.62" gradientTransform="matrix(7.93, 3.28, 3.35, -8.08, -2565.7, 6245.27)" gradientUnits="userSpaceOnUse"><stop offset="0" stop-color="#195773"/><stop offset="1" stop-color="#33a5d3"/></linearGradient><linearGradient id="linear-gradient-2" x1="228.78" y1="596.61" x2="357.35" y2="596.61" gradientTransform="matrix(1.65, 0, 0, -1.65, -262.63, 1368.34)" gradientUnits="userSpaceOnUse"><stop offset="0" stop-color="#38b3e4"/><stop offset="1" stop-color="#17516b"/></linearGradient><linearGradient id="linear-gradient-3" x1="228.78" y1="596.61" x2="357.35" y2="596.61" gradientTransform="translate(858.34 1368.34) rotate(180) scale(1.65)" gradientUnits="userSpaceOnUse"><stop offset="0" stop-color="#17516b"/><stop offset="1" stop-color="#38b3e4"/></linearGradient></defs><circle id="path24" class="cls-1" cx="297.85" cy="606.48" r="34.25" transform="translate(-466.39 589.93) rotate(-79.7)"/><path id="path45" class="cls-2" d="M206,385.44l91.81-183.63,14,27.92,14,27.91L255.44,398.73,185.12,539.82,150,554.44c-19.3,8-35.25,14.62-35.44,14.62s41-82.63,91.47-183.63Z" transform="translate(-114.28 -201.16)"/><path id="path45-4" class="cls-3" d="M389.66,385.44,297.85,201.81l-14,27.92-14,27.91,70.33,141.09,70.33,141.09,35.1,14.62c19.31,8,35.26,14.62,35.44,14.62s-41-82.63-91.47-183.62Z" transform="translate(-114.28 -201.16)"/></svg>