<svg id="svg1" xmlns="http://www.w3.org/2000/svg" xmlns:xlink="http://www.w3.org/1999/xlink" viewBox="0 0 465.17 589.86"><defs><style>.cls-1{fill:url(#linear-gradient);}.cls-2{fill:url(#linear-gradient-2);}.cls-3{fill-opacity:0;}.cls-4{fill:url(#linear-gradient-3);}</style><linearGradient id="linear-gradient" x1="-588.28" y1="791.46" x2="-580.3" y2="791.46" gradientTransform="matrix(6.81, -10.57, -10.79, -6.95, 12751.01, -136.99)" gradientUnits="userSpaceOnUse"><stop offset="0" stop-color="#195773"/><stop offset="1" stop-color="#33a5d3"/></linearGradient><linearGradient id="linear-gradient-2" x1="-369.38" y1="757.43" x2="-291.89" y2="757.43" gradientTransform="matrix(3.35, 0, 0, -3.35, 1492.59, 2917.08)" gradientUnits="userSpaceOnUse"><stop offset="0" stop-color="#33a5d3"/><stop offset="1" stop-color="#195773"/></linearGradient><linearGradient id="linear-gradient-3" x1="-421.89" y1="744.93" x2="-356.89" y2="744.93" xlink:href="#linear-gradient-2"/></defs><g id="g15"><circle id="path24" class="cls-1" cx="232.58" cy="539.63" r="50.22"/><path id="path2" class="cls-2" d="M515.27,598.68,414.83,565.2l-159-318.08,41.8-83.71Z" transform="translate(-65.05 -126.02)"/><path id="path1" class="cls-3" d="M520.56,582.82l-93.88-31.29L274.52,247.11c5.33-10.67,14.4-28.82,23.13-46.31L500.32,606.15Zm9.66,8.38L312.59,155.94l-15-29.92-14.95,29.92c-13,26.13-27.42,54.92-41.8,83.71l-3.73,7.47,3.73,7.47c54.69,109.4,109.37,218.79,159,318.08l3.1,6.19,6.57,2.19L510,614.54Z" transform="translate(-65.05 -126.02)"/><path id="path4" class="cls-4" d="M80,598.68,180.45,565.2,297.64,330.82l-41.8-83.7Z" transform="translate(-65.05 -126.02)"/><path id="path3" class="cls-3" d="M85.29,614.54l100.45-33.49,6.56-2.19,3.1-6.19C232,499.51,272.28,418.9,312.59,338.3l3.73-7.47-3.73-7.48c-14.38-28.78-28.75-57.57-41.8-83.7l-14.94-29.92-15,29.91C168.1,385.16,105.15,511,65.05,591.2ZM95,606.16c37.32-74.63,94.45-188.85,160.87-321.65-3-6.06,10,20,23.13,46.31L168.6,551.53,74.72,582.82Z" transform="translate(-65.05 -126.02)"/></g></svg>